<?xml version="1.0" encoding="UTF-8" standalone="no"?>
<!DOCTYPE svg PUBLIC "-//W3C//DTD SVG 1.1//EN" "http://www.w3.org/Graphics/SVG/1.1/DTD/svg11.dtd">
<svg version="1.1" xmlns="http://www.w3.org/2000/svg" xmlns:xlink="http://www.w3.org/1999/xlink" preserveAspectRatio="xMidYMid meet" viewBox="0 0 640 640" width="640" height="640"><defs><path d="M516.61 295.08C519.68 283.81 521.73 272.04 522.75 260.26C523.78 260.77 524.8 261.29 526.34 261.29C526.54 261.29 528.18 261.29 528.38 261.29C531.46 261.29 534.02 258.73 534.02 255.65C534.02 252.74 534.02 229.39 534.02 226.47C534.02 223.4 531.46 220.84 528.38 220.84C528.18 220.84 526.54 220.84 526.34 220.84C524.8 220.84 523.78 221.35 522.75 221.86C518.66 179.37 501.76 140.97 476.16 110.25C477.18 109.73 477.7 109.73 478.72 108.71C478.87 108.56 480.1 107.33 480.26 107.17C482.3 105.13 482.3 101.03 480.26 98.98C478.21 96.93 461.82 80.55 459.78 78.5C457.73 76.45 453.63 76.45 451.58 78.5C451.43 78.66 450.2 79.88 450.05 80.04C449.54 80.55 449.02 81.57 448.51 82.6C413.7 54.44 369.15 37.03 321.02 37.03C321.02 37.03 321.02 37.03 321.02 37.03C321.02 37.03 313.34 37.03 310.27 37.54C265.22 39.59 224.77 55.97 192 82.6C191.49 82.09 191.49 81.06 190.46 80.55C190.31 80.4 189.08 79.17 188.93 79.01C186.88 76.97 182.78 76.97 180.74 79.01C178.69 81.06 162.3 97.45 160.26 99.49C158.21 101.54 158.21 105.64 160.26 107.69C160.41 107.84 161.64 109.07 161.79 109.22C162.3 109.73 162.82 110.25 163.33 110.25C137.22 140.97 120.83 179.88 116.74 221.86C115.71 221.35 114.69 220.84 113.66 220.84C113.46 220.84 111.82 220.84 111.62 220.84C108.54 220.84 105.98 223.4 105.98 226.47C105.98 229.39 105.98 252.74 105.98 255.65C105.98 258.73 108.54 261.29 111.62 261.29C111.82 261.29 113.46 261.29 113.66 261.29C114.69 261.29 115.71 260.77 116.74 260.26C117.76 272.04 119.81 283.81 123.39 295.08C120.68 310.75 98.97 436.08 96.26 451.75C92.16 452.77 89.6 455.33 89.6 459.43C89.6 460.4 89.6 468.19 89.6 469.16C89.6 473.25 93.18 476.84 97.28 476.84C98.05 476.84 104.19 476.84 104.96 476.84C109.06 476.84 112.64 473.25 112.64 469.16C112.64 468.19 112.64 460.4 112.64 459.43C112.64 455.85 110.59 453.29 107.52 452.26C109.88 438.9 128.72 331.99 131.07 318.63C138.24 337.06 148.48 353.45 160.26 368.81C159.74 369.32 159.23 369.32 158.72 369.83C158.57 369.98 157.34 371.21 157.18 371.37C155.14 373.41 155.14 377.51 157.18 379.56C159.23 381.61 175.62 397.99 177.66 400.04C179.71 402.09 183.81 402.09 185.86 400.04C186.01 399.88 187.24 398.66 187.39 398.5C187.9 397.99 187.9 397.48 188.42 397.48C224.26 427.69 269.82 445.61 320 445.61C323.07 445.61 326.66 445.61 329.73 445.61C334.34 445.61 339.46 445.09 344.06 444.58C344.06 444.58 344.58 444.58 344.58 444.58C388.1 439.46 427.01 421.03 457.22 393.38C457.73 393.89 458.24 394.92 458.75 395.43C458.91 395.58 460.13 396.81 460.29 396.97C462.85 399.01 466.43 399.01 468.48 396.45C470.43 394.3 485.99 377.1 487.94 374.95C489.98 372.39 489.98 368.81 487.42 366.76C487.27 366.6 486.04 365.38 485.89 365.22C485.38 364.71 484.35 364.2 483.84 364.2C494.08 350.37 502.78 335.53 508.93 319.14C511.28 332.56 530.12 439.87 532.48 453.29C529.41 454.31 527.36 456.87 527.36 460.45C527.36 461.43 527.36 469.21 527.36 470.18C527.36 474.28 530.94 477.86 535.04 477.86C535.81 477.86 541.95 477.86 542.72 477.86C546.82 477.86 550.4 474.28 550.4 470.18C550.4 469.21 550.4 461.43 550.4 460.45C550.4 455.33 547.84 452.77 543.74 451.75C538.32 420.42 519.32 310.75 516.61 295.08ZM299.01 426.66C299.01 423.73 299.01 409.05 299.01 382.63L314.88 382.63L314.88 427.69C307.71 427.35 302.42 427 299.01 426.66ZM342.02 426.66C337.92 427.17 333.31 427.69 328.7 427.69C327.68 427.69 327.17 427.69 326.14 427.69C326.14 424.68 326.14 409.66 326.14 382.63L341.5 382.63L341.5 426.66C341.78 426.66 341.95 426.66 342.02 426.66ZM353.79 382.63C353.79 375.97 348.67 370.85 342.02 370.85C340.99 370.85 335.87 370.85 326.66 370.85L326.66 275.62C328.19 275.62 329.05 275.62 329.22 275.62C338.94 275.62 346.62 267.94 346.62 258.21C346.62 255.96 346.62 237.94 346.62 235.69C346.62 225.96 338.94 218.28 329.22 218.28C327.42 218.28 313.09 218.28 311.3 218.28C301.57 218.28 293.89 225.96 293.89 235.69C293.89 237.94 293.89 255.96 293.89 258.21C293.89 267.94 301.57 275.62 311.3 275.62C311.53 275.62 312.73 275.62 314.88 275.62L314.88 370.85C305.36 370.85 300.07 370.85 299.01 370.85C292.35 370.85 287.23 375.97 287.23 382.63C287.23 386.83 287.23 420.42 287.23 424.61C202.75 409.77 137.73 338.6 133.63 250.02C131.07 200.36 148.48 152.74 181.76 115.88C215.04 79.01 261.12 57.51 310.78 54.95C313.86 54.95 316.93 54.95 320 54.95C419.33 54.95 501.25 132.77 506.37 232.61C510.98 326.82 443.9 408.23 353.79 424.61C353.79 416.22 353.79 386.83 353.79 382.63Z" id="aUrUFdxMK"></path></defs><g><g><g><use xlink:href="#aUrUFdxMK" opacity="1" fill="#30495e" fill-opacity="1"></use><g><use xlink:href="#aUrUFdxMK" opacity="1" fill-opacity="0" stroke="#000000" stroke-width="1" stroke-opacity="0"></use></g></g></g></g></svg>