<svg xmlns="http://www.w3.org/2000/svg" xmlns:xlink="http://www.w3.org/1999/xlink" version="1.1" x="0px" y="0px" viewBox="0 0 64 80" enable-background="new 0 0 64 64" xml:space="preserve"><g><path d="M56.771,26.993C58.171,26.151,59,25.16,59,24c0-4.98-15.184-6.884-26-6.995V8c0-0.552-0.448-1-1-1s-1,0.448-1,1v9.005   C20.184,17.116,5,19.02,5,24c0,1.16,0.829,2.151,2.229,2.993C5.757,27.881,5,28.886,5,30c0,4.98,15.184,6.884,26,6.995V56   c0,0.553,0.448,1,1,1s1-0.447,1-1V36.995C43.816,36.884,59,34.98,59,30C59,28.886,58.242,27.881,56.771,26.993z M31,19.012V22   c0,0.552,0.448,1,1,1s1-0.448,1-1v-2.988C48.749,19.144,57,22.292,57,24c0,1.745-8.586,5-25,5c-16.414,0-25-3.255-25-5   C7,22.292,15.251,19.144,31,19.012z M32,35c-16.414,0-25-3.255-25-5c0-0.413,0.684-1.147,2.522-1.932C15.1,30.162,24.733,31,32,31   s16.9-0.838,22.478-2.932C56.316,28.853,57,29.585,57,30C57,31.745,48.414,35,32,35z"/></g><text x="0" y="79" fill="#000000" font-size="5px" font-weight="bold" font-family="'Helvetica Neue', Helvetica, Arial-Unicode, Arial, Sans-serif">Created by Ralf Schmitzer</text><text x="0" y="84" fill="#000000" font-size="5px" font-weight="bold" font-family="'Helvetica Neue', Helvetica, Arial-Unicode, Arial, Sans-serif">from the Noun Project</text></svg>