<svg xmlns="http://www.w3.org/2000/svg" xmlns:xlink="http://www.w3.org/1999/xlink" version="1.1" x="0px" y="0px" viewBox="0 0 32 40" style="enable-background:new 0 0 32 32;" xml:space="preserve"><style type="text/css">
	.st0{fill:none;}
</style><g><g><path d="M31,15c-0.0169067,0-0.0337524,0-0.0506592,0c-0.2247314-3.3827515-1.5693359-6.4570923-3.6743164-8.8608398    c0.144043-0.1439819,0.2880859-0.2880249,0.4320679-0.4320679c0.9113159-0.9112549-0.5025024-2.3258667-1.4141846-1.4141846    c-0.144043,0.1439819-0.2880859,0.2880249-0.4320679,0.4320679C23.4570923,2.6199951,20.3827515,1.2753906,17,1.0506592    C17,1.0337524,17,1.0169067,17,1c0-1.2869263-2-1.2890625-2,0c0,0.0169067,0,0.0337524,0,0.0506592    c-3.3827515,0.2247314-6.4570923,1.5692749-8.8608398,3.6743164c-0.144043-0.144043-0.2880249-0.2880859-0.4320679-0.4320679    C4.7958374,3.3815918,3.3812256,4.7954102,4.2929077,5.7070923c0.1439819,0.144043,0.2880859,0.2880859,0.4320679,0.4320679    C2.6199951,8.5429077,1.2753906,11.6172485,1.0506592,15C1.0337524,15,1.0169067,15,1,15c-1.2868652,0-1.2890015,2,0,2    c0.0169067,0,0.0337524,0,0.0506592,0c0.2247314,3.3827515,1.5693359,6.4570923,3.6743164,8.8608398    c-0.1439819,0.1439819-0.2880859,0.2880249-0.4320679,0.4320679c-0.9112549,0.9112549,0.5025635,2.3258667,1.4141846,1.4141846    c0.144043-0.1439819,0.2880859-0.2880249,0.4320679-0.4320679C8.5429077,29.3800049,11.6172485,30.7246094,15,30.9493408    C15,30.9662476,15,30.9830933,15,31c0,1.2868652,2,1.2890015,2,0c0-0.0169067,0-0.0337524,0-0.0506592    c3.3827515-0.2247314,6.4570923-1.5693359,8.8608398-3.6743164c0.1439819,0.144043,0.2880249,0.2880859,0.4320679,0.4320679    c1,1,2,2,3,3c0.9112549,0.9112549,2.3258667-0.5025635,1.4141846-1.4141846c-1-1-2-2-3-3    c-0.1439819-0.144043-0.2880249-0.2880859-0.4320679-0.4320679c0.1828613-0.2088013,0.3601074-0.4214478,0.5313721-0.6402588    c0.4954834,0.4954834,0.9910278,0.9910278,1.4865112,1.4865112c0.9112549,0.9113159,2.3258667-0.5025024,1.4141846-1.4141846    c-0.5859985-0.5859985-1.171936-1.171936-1.7579346-1.7579346C30.0855103,21.5899048,30.7918091,19.3713989,30.9493408,17    C30.9662476,17,30.9830933,17,31,17C32.2869263,17,32.2890625,15,31,15z M27.4863281,22.0721436    c-3.5930786-3.5930786-7.1861572-7.1861572-10.7792358-10.7792358c-0.9112549-0.9113159-2.3258667,0.5025024-1.4141846,1.4141846    c3.6956177,3.6956787,7.3912354,7.3912964,11.0869141,11.0869141c-0.1674805,0.2224731-0.3371582,0.4422607-0.5182495,0.6533813    c-3.0514526-3.0515137-6.1029663-6.1030273-9.15448-9.15448c-0.9112549-0.9113159-2.3258667,0.5025024-1.4141846,1.4141846    c3.0514526,3.0515137,6.1029663,6.1030273,9.15448,9.15448C22.1728516,27.8128052,19.2249146,29,16,29    C8.831543,29,3,23.168457,3,16S8.831543,3,16,3s13,5.831543,13,13C29,18.1930542,28.4492188,20.2580566,27.4863281,22.0721436z"/></g></g><text x="0" y="47" fill="#000000" font-size="5px" font-weight="bold" font-family="'Helvetica Neue', Helvetica, Arial-Unicode, Arial, Sans-serif">Created by Dam</text><text x="0" y="52" fill="#000000" font-size="5px" font-weight="bold" font-family="'Helvetica Neue', Helvetica, Arial-Unicode, Arial, Sans-serif">from the Noun Project</text></svg>